<svg xmlns="http://www.w3.org/2000/svg" xmlns:xlink="http://www.w3.org/1999/xlink" xmlns:lucid="lucid" width="1840" height="1340"><g transform="translate(0 20)" lucid:page-tab-id="0_0"><path d="M0 0h1870.87v1322.84H0z" fill="#fff"/><path d="M260 6a6 6 0 0 1 6-6h1348a6 6 0 0 1 6 6v1288a6 6 0 0 1-6 6H266a6 6 0 0 1-6-6z" stroke="#5e5e5e" stroke-width="3" fill-opacity="0"/><use xlink:href="#a" transform="matrix(1,0,0,1,268,8) translate(603.604938271605 17.77777777777778)"/><use xlink:href="#b" transform="matrix(1,0,0,1,268,8) translate(660.3333333333334 17.77777777777778)"/><path d="M94.75 864.75c0 13.67-11.08 24.75-24.75 24.75s-24.75-11.08-24.75-24.75S56.33 840 70 840s24.75 11.08 24.75 24.75z" stroke="#5e5e5e" stroke-width="3" fill="#fff"/><path d="M70 889.5v63.3a20.74 20.74 0 0 0 3.2 11.07L120 1038m-50-79.2L20 1038m0-123.75h100" stroke="#5e5e5e" stroke-width="3" fill="none"/><path d="M20 846a6 6 0 0 1 6-6h88a6 6 0 0 1 6 6v208a6 6 0 0 1-6 6H26a6 6 0 0 1-6-6z" fill="none"/><use xlink:href="#c" transform="matrix(1,0,0,1,-60,1038) translate(98.58024691358025 17.77777777777778)"/><path d="M1799.75 359.75c0 10.9-8.84 19.75-19.75 19.75-10.9 0-19.75-8.84-19.75-19.75 0-10.9 8.84-19.75 19.75-19.75 10.9 0 19.75 8.84 19.75 19.75z" stroke="#5e5e5e" stroke-width="3" fill="#fff"/><path d="M1780 379.5v49.3a20.7 20.7 0 0 0 3.2 11.07L1820 498m-40-63.2l-40 63.2m0-98.75h80" stroke="#5e5e5e" stroke-width="3" fill="none"/><path d="M1740 346a6 6 0 0 1 6-6h68a6 6 0 0 1 6 6v168a6 6 0 0 1-6 6h-68a6 6 0 0 1-6-6z" fill="none"/><use xlink:href="#d" transform="matrix(1,0,0,1,1660,498) translate(91.69753086419753 17.77777777777778)"/><path d="M1280 80c0 33.14-35.82 60-80 60s-80-26.86-80-60 35.82-60 80-60 80 26.86 80 60z" stroke="#5e5e5e" stroke-width="3" fill="#fff"/><use xlink:href="#e" transform="matrix(1,0,0,1,1120,20) translate(15.604999999999999 63.15)"/><use xlink:href="#f" transform="matrix(1,0,0,1,1120,20) translate(95.40500000000002 63.15)"/><path d="M1280 240c0 33.14-35.82 60-80 60s-80-26.86-80-60 35.82-60 80-60 80 26.86 80 60z" stroke="#5e5e5e" stroke-width="3" fill="#fff"/><use xlink:href="#g" transform="matrix(1,0,0,1,1120,180) translate(11.62999999999999 63.15)"/><use xlink:href="#h" transform="matrix(1,0,0,1,1120,180) translate(93.48 63.15)"/><path d="M1280 400c0 33.14-35.82 60-80 60s-80-26.86-80-60 35.82-60 80-60 80 26.86 80 60z" stroke="#5e5e5e" stroke-width="3" fill="#fff"/><use xlink:href="#i" transform="matrix(1,0,0,1,1120,340) translate(14.104999999999999 51.9)"/><use xlink:href="#j" transform="matrix(1,0,0,1,1120,340) translate(125.90500000000002 51.9)"/><use xlink:href="#k" transform="matrix(1,0,0,1,1120,340) translate(61.055 73.5)"/><path d="M920 240c0 33.14-35.82 60-80 60s-80-26.86-80-60 35.82-60 80-60 80 26.86 80 60z" stroke="#5e5e5e" stroke-width="3" fill="#fff"/><use xlink:href="#l" transform="matrix(1,0,0,1,760,180) translate(53.029999999999994 51.9)"/><use xlink:href="#m" transform="matrix(1,0,0,1,760,180) translate(35.55499999999999 73.5)"/><path d="M1777.67 418.24L1282.33 80.56M1777.65 418.22l3.33 2.27" stroke="#5e5e5e" stroke-width="2" fill="none"/><path d="M1282.9 79.75l-1.12 1.65-.32-.22.04-1.16v-.43l-.03-.83z" stroke="#5e5e5e" stroke-width=".05" fill="#5e5e5e"/><path d="M1777.57 418.43l-520.64-204.06M1777.55 418.42l3.74 1.47M1256.95 214.37l-.95-.37M1777.5 418.76l-495-18.72M1777.47 418.76l4.03.15" stroke="#5e5e5e" stroke-width="2" fill="none"/><path d="M1282.56 399.04l-.07 2-1.03-.04.03-.98v-.43l-.03-.6z" stroke="#5e5e5e" stroke-width=".05" fill="#5e5e5e"/><path d="M1117.72 399.37L922.28 240.63" stroke="#5e5e5e" stroke-width="2" fill="none"/><path d="M1118.54 398.74l-.04 1.24v.43l.04.92-1.47-1.2 1.26-1.54zM922.93 239.87l-1.26 1.55-.2-.16.03-1.24v-.43l-.04-.92z" stroke="#5e5e5e" stroke-width=".05" fill="#5e5e5e"/><path d="M560 80c0 33.14-35.82 60-80 60s-80-26.86-80-60 35.82-60 80-60 80 26.86 80 60z" stroke="#5e5e5e" stroke-width="3" fill="#fff"/><use xlink:href="#n" transform="matrix(1,0,0,1,400,20) translate(8.104999999999999 63.15)"/><path d="M560 240c0 33.14-35.82 60-80 60s-80-26.86-80-60 35.82-60 80-60 80 26.86 80 60z" stroke="#5e5e5e" stroke-width="3" fill="#fff"/><use xlink:href="#o" transform="matrix(1,0,0,1,400,180) translate(48.10499999999999 63.15)"/><path d="M560 400c0 33.14-35.82 60-80 60s-80-26.86-80-60 35.82-60 80-60 80 26.86 80 60z" stroke="#5e5e5e" stroke-width="3" fill="#fff"/><use xlink:href="#p" transform="matrix(1,0,0,1,400,340) translate(58.029999999999994 63.15)"/><path d="M757.72 239.37L562.28 80.63" stroke="#5e5e5e" stroke-width="2" fill="none"/><path d="M758.54 238.74l-.04 1.24v.43l.04.92-1.47-1.2 1.26-1.54zM562.93 79.87l-1.26 1.55-.2-.16.03-1.24v-.43l-.04-.92z" stroke="#5e5e5e" stroke-width=".05" fill="#5e5e5e"/><path d="M757.5 240h-195" stroke="#5e5e5e" stroke-width="2" fill="none"/><path d="M758.5 239.98v.43l.02.6h-1.05v-2h1.06zM562.53 241h-1.06l.03-.98v-.43l-.02-.6h1.05z" stroke="#5e5e5e" stroke-width=".05" fill="#5e5e5e"/><path d="M757.72 240.63L562.28 399.37" stroke="#5e5e5e" stroke-width="2" fill="none"/><path d="M758.5 239.98v.43l.03.86-.2.16-1.26-1.55 1.47-1.2zM562.93 400.13l-1.47 1.2.04-1.3v-.44l-.03-.86.2-.16z" stroke="#5e5e5e" stroke-width=".05" fill="#5e5e5e"/><path d="M460 960c0 33.14-35.82 60-80 60s-80-26.86-80-60 35.82-60 80-60 80 26.86 80 60z" stroke="#5e5e5e" stroke-width="3" fill="#fff"/><use xlink:href="#q" transform="matrix(1,0,0,1,300,900) translate(58.029999999999994 63.15)"/><path d="M1140 720c0 33.14-35.82 60-80 60s-80-26.86-80-60 35.82-60 80-60 80 26.86 80 60z" stroke="#5e5e5e" stroke-width="3" fill="#fff"/><use xlink:href="#r" transform="matrix(1,0,0,1,980,660) translate(9.579999999999993 63.15)"/><use xlink:href="#s" transform="matrix(1,0,0,1,980,660) translate(76.53 63.15)"/><path d="M600 620c0 33.14-35.82 60-80 60s-80-26.86-80-60 35.82-60 80-60 80 26.86 80 60z" stroke="#5e5e5e" stroke-width="3" fill="#fff"/><use xlink:href="#t" transform="matrix(1,0,0,1,440,560) translate(16.57999999999999 63.15)"/><use xlink:href="#u" transform="matrix(1,0,0,1,440,560) translate(79.53 63.15)"/><path d="M1220 880c0 33.14-35.82 60-80 60s-80-26.86-80-60 35.82-60 80-60 80 26.86 80 60z" stroke="#5e5e5e" stroke-width="3" fill="#fff"/><use xlink:href="#v" transform="matrix(1,0,0,1,1060,820) translate(30.019814814814808 52.43333333333334)"/><use xlink:href="#w" transform="matrix(1,0,0,1,1060,820) translate(115.52351851851853 52.43333333333334)"/><use xlink:href="#x" transform="matrix(1,0,0,1,1060,820) translate(14.256851851851858 74.83333333333334)"/><use xlink:href="#y" transform="matrix(1,0,0,1,1060,820) translate(52.52351851851852 74.83333333333334)"/><use xlink:href="#z" transform="matrix(1,0,0,1,1060,820) translate(87.78277777777778 74.83333333333334)"/><path d="M760 1120c0 33.14-35.82 60-80 60s-80-26.86-80-60 35.82-60 80-60 80 26.86 80 60z" stroke="#5e5e5e" stroke-width="3" fill="#fff"/><use xlink:href="#A" transform="matrix(1,0,0,1,600,1060) translate(47.88277777777777 52.43333333333334)"/><use xlink:href="#B" transform="matrix(1,0,0,1,600,1060) translate(29.242037037037036 74.83333333333334)"/><path d="M840 460c0 33.14-35.82 60-80 60s-80-26.86-80-60 35.82-60 80-60 80 26.86 80 60z" stroke="#5e5e5e" stroke-width="3" fill="#fff"/><use xlink:href="#C" transform="matrix(1,0,0,1,680,400) translate(51.55499999999999 63.15)"/><path d="M1040 540c0 33.14-35.82 60-80 60s-80-26.86-80-60 35.82-60 80-60 80 26.86 80 60z" stroke="#5e5e5e" stroke-width="3" fill="#fff"/><use xlink:href="#D" transform="matrix(1,0,0,1,880,480) translate(48.10499999999999 63.15)"/><path d="M920 650c0 33.14-35.82 60-80 60s-80-26.86-80-60 35.82-60 80-60 80 26.86 80 60z" stroke="#5e5e5e" stroke-width="3" fill="#fff"/><use xlink:href="#E" transform="matrix(1,0,0,1,760,590) translate(45.05499999999999 63.15)"/><path d="M71 961.6h226.55M71.03 961.6H67" stroke="#5e5e5e" stroke-width="2" fill="none"/><path d="M298.6 962.6h-1.08v-2h1z" stroke="#5e5e5e" stroke-width=".05" fill="#5e5e5e"/><path d="M380.2 897.52l58.1-276.54" stroke="#5e5e5e" stroke-width="2" fill="none"/><path d="M381.2 897.7l-.2.83-.98-.03h-1.05l.26-1.2zM438.6 616.96v.08l-.1 2.94v.43l.03.65-1.22-.25.84-3.94z" stroke="#5e5e5e" stroke-width=".05" fill="#5e5e5e"/><path d="M602 619.13l80-139.25" stroke="#5e5e5e" stroke-width="2" fill="none"/><path d="M602.88 619.6l-1.45 2.52.07-2.1v-.43l-.03-.8zM682.02 477.96l.97 2.2-.16.24-1.73-1 .9-1.53z" stroke="#5e5e5e" stroke-width=".05" fill="#5e5e5e"/><path d="M602.46 619.72l275.08-79.44" stroke="#5e5e5e" stroke-width="2" fill="none"/><path d="M602.76 620.68l-1.3.37.04-1.03v-.43l-.03-.63.74-.22zM878.5 539.98v.43l.03.63-.74.22-.56-1.93 1.3-.37z" stroke="#5e5e5e" stroke-width=".05" fill="#5e5e5e"/><path d="M602.48 620.2l155.04 29.6" stroke="#5e5e5e" stroke-width="2" fill="none"/><path d="M602.7 619.2l-.38 1.97-.85-.16.03-.98v-.43l-.03-.62zM758.53 649l-.03.98v.43l.03.62-1.23-.23.38-1.97z" stroke="#5e5e5e" stroke-width=".05" fill="#5e5e5e"/><path d="M462.4 959.58l515.2-239.16" stroke="#5e5e5e" stroke-width="2" fill="none"/><path d="M462.85 960.48l-1.38.64.03-1.1v-.43l-.03-.7.54-.24zM978.5 719.98v.43l.03.7-.54.24-.85-1.82 1.38-.64z" stroke="#5e5e5e" stroke-width=".05" fill="#5e5e5e"/><path d="M1420 530c0 33.14-35.82 60-80 60s-80-26.86-80-60 35.82-60 80-60 80 26.86 80 60z" stroke="#5e5e5e" stroke-width="3" fill="#fff"/><use xlink:href="#F" transform="matrix(1,0,0,1,1260,470) translate(54.529999999999994 63.15)"/><path d="M1460 660c0 33.14-35.82 60-80 60s-80-26.86-80-60 35.82-60 80-60 80 26.86 80 60z" stroke="#5e5e5e" stroke-width="3" fill="#fff"/><use xlink:href="#o" transform="matrix(1,0,0,1,1300,600) translate(48.10499999999999 63.15)"/><path d="M1580 760c0 33.14-35.82 60-80 60s-80-26.86-80-60 35.82-60 80-60 80 26.86 80 60z" stroke="#5e5e5e" stroke-width="3" fill="#fff"/><use xlink:href="#E" transform="matrix(1,0,0,1,1420,700) translate(45.05499999999999 63.15)"/><path d="M1142.02 719.15l115.96-188.3" stroke="#5e5e5e" stroke-width="2" fill="none"/><path d="M1142.9 719.65l-1.46 2.36.06-1.98v-.43l-.03-.83zM1258.5 529.98v.43l.03.83-1.42-.88 1.46-2.36z" stroke="#5e5e5e" stroke-width=".05" fill="#5e5e5e"/><path d="M1142.43 719.64l155.14-59.28" stroke="#5e5e5e" stroke-width="2" fill="none"/><path d="M1142.82 720.57l-1.35.5.03-1.05v-.43l-.03-.66.63-.24zM1298.5 659.98v.43l.03.66-.63.24-.72-1.87 1.35-.5z" stroke="#5e5e5e" stroke-width=".05" fill="#5e5e5e"/><path d="M1142.5 720.14l275 39.72" stroke="#5e5e5e" stroke-width="2" fill="none"/><path d="M1142.66 719.16l-.3 1.98-.9-.13.04-.98v-.43l-.03-.6zM1418.53 759l-.03.98v.43l.03.6-1.2-.16.3-1.98z" stroke="#5e5e5e" stroke-width=".05" fill="#5e5e5e"/><path d="M462.5 959.87l595-79.74" stroke="#5e5e5e" stroke-width="2" fill="none"/><path d="M462.65 960.86l-1.18.15.03-.98v-.43l-.02-.6.9-.13zM1058.5 879.98v.43l.03.6-.9.13-.28-2 1.18-.14z" stroke="#5e5e5e" stroke-width=".05" fill="#5e5e5e"/><path d="M1120 1220c0 33.14-35.82 60-80 60s-80-26.86-80-60 35.82-60 80-60 80 26.86 80 60z" stroke="#5e5e5e" stroke-width="3" fill="#fff"/><use xlink:href="#G" transform="matrix(1,0,0,1,960,1160) translate(44.27907407407406 63.68333333333334)"/><path d="M1060 986c0 33.14-35.82 60-80 60s-80-26.86-80-60 35.82-60 80-60 80 26.86 80 60z" stroke="#5e5e5e" stroke-width="3" fill="#fff"/><use xlink:href="#H" transform="matrix(1,0,0,1,900,926) translate(54.83092592592592 63.68333333333334)"/><path d="M1300 1080c0 33.14-35.82 60-80 60s-80-26.86-80-60 35.82-60 80-60 80 26.86 80 60z" stroke="#5e5e5e" stroke-width="3" fill="#fff"/><use xlink:href="#I" transform="matrix(1,0,0,1,1140,1020) translate(50.99388888888888 63.68333333333334)"/><path d="M462.15 960.76l135.7 158.48" stroke="#5e5e5e" stroke-width="2" fill="none"/><path d="M462.93 960.13l-1.47 1.26.04-1.38v-.43l-.05-1.2zM598.5 1119.98v.43l.05 1.2-1.48-1.73 1.47-1.26z" stroke="#5e5e5e" stroke-width=".05" fill="#5e5e5e"/><path d="M762.2 1119.3l135.7-135.7" stroke="#5e5e5e" stroke-width="2" fill="none"/><path d="M762.93 1119.98l-1.47 1.48.04-1.44v-.43l-.04-.97.06-.06zM898.6 983.04l-.05 1.25-1.38-1.4 1.58-1.57z" stroke="#5e5e5e" stroke-width=".05" fill="#5e5e5e"/><path d="M762.5 1119.9l375-39.8" stroke="#5e5e5e" stroke-width="2" fill="none"/><path d="M762.63 1120.9l-1.16.1.03-.98v-.43l-.02-.6.93-.1zM1138.5 1079.98v.43l.03.6-.94.1-.22-2 1.15-.1z" stroke="#5e5e5e" stroke-width=".05" fill="#5e5e5e"/><path d="M762.4 1120.45l195.2 99.1" stroke="#5e5e5e" stroke-width="2" fill="none"/><path d="M762.87 1119.57l-.9 1.8-.5-.27.03-1.08v-.43l-.03-.74zM958.53 1218.9l-.03 1.08v.43l.03.74-1.4-.7.9-1.8z" stroke="#5e5e5e" stroke-width=".05" fill="#5e5e5e"/><defs><path fill="#333" d="M96-169c-40 0-48 33-48 73s9 75 48 75c24 0 41-14 43-38l32 2c-6 37-31 61-74 61-59 0-76-41-82-99-10-93 101-131 147-64 4 7 5 14 7 22l-32 3c-4-21-16-35-41-35" id="J"/><path fill="#333" d="M24 0v-261h32V0H24" id="K"/><path fill="#333" d="M141-36C126-15 110 5 73 4 37 3 15-17 15-53c-1-64 63-63 125-63 3-35-9-54-41-54-24 1-41 7-42 31l-33-3c5-37 33-52 76-52 45 0 72 20 72 64v82c-1 20 7 32 28 27v20c-31 9-61-2-59-35zM48-53c0 20 12 33 32 33 41-3 63-29 60-74-43 2-92-5-92 41" id="L"/><path fill="#333" d="M135-143c-3-34-86-38-87 0 15 53 115 12 119 90S17 21 10-45l28-5c4 36 97 45 98 0-10-56-113-15-118-90-4-57 82-63 122-42 12 7 21 19 24 35" id="M"/><g id="a"><use transform="matrix(0.06172839506172839,0,0,0.06172839506172839,0,0)" xlink:href="#J"/><use transform="matrix(0.06172839506172839,0,0,0.06172839506172839,11.11111111111111,0)" xlink:href="#K"/><use transform="matrix(0.06172839506172839,0,0,0.06172839506172839,15.987654320987653,0)" xlink:href="#L"/><use transform="matrix(0.06172839506172839,0,0,0.06172839506172839,28.333333333333332,0)" xlink:href="#M"/><use transform="matrix(0.06172839506172839,0,0,0.06172839506172839,39.44444444444444,0)" xlink:href="#M"/></g><path fill="#333" d="M85-194c31 0 48 13 60 33l-1-100h32l1 261h-30c-2-10 0-23-3-31C134-8 116 4 85 4 32 4 16-35 15-94c0-66 23-100 70-100zm9 24c-40 0-46 34-46 75 0 40 6 74 45 74 42 0 51-32 51-76 0-42-9-74-50-73" id="N"/><path fill="#333" d="M24-231v-30h32v30H24zM24 0v-190h32V0H24" id="O"/><path fill="#333" d="M177-190C167-65 218 103 67 71c-23-6-38-20-44-43l32-5c15 47 100 32 89-28v-30C133-14 115 1 83 1 29 1 15-40 15-95c0-56 16-97 71-98 29-1 48 16 59 35 1-10 0-23 2-32h30zM94-22c36 0 50-32 50-73 0-42-14-75-50-75-39 0-46 34-46 75s6 73 46 73" id="P"/><path fill="#333" d="M114-163C36-179 61-72 57 0H25l-1-190h30c1 12-1 29 2 39 6-27 23-49 58-41v29" id="Q"/><path fill="#333" d="M210-169c-67 3-38 105-44 169h-31v-121c0-29-5-50-35-48C34-165 62-65 56 0H25l-1-190h30c1 10-1 24 2 32 10-44 99-50 107 0 11-21 27-35 58-36 85-2 47 119 55 194h-31v-121c0-29-5-49-35-48" id="R"/><g id="b"><use transform="matrix(0.06172839506172839,0,0,0.06172839506172839,0,0)" xlink:href="#N"/><use transform="matrix(0.06172839506172839,0,0,0.06172839506172839,12.345679012345679,0)" xlink:href="#O"/><use transform="matrix(0.06172839506172839,0,0,0.06172839506172839,17.22222222222222,0)" xlink:href="#L"/><use transform="matrix(0.06172839506172839,0,0,0.06172839506172839,29.5679012345679,0)" xlink:href="#P"/><use transform="matrix(0.06172839506172839,0,0,0.06172839506172839,41.913580246913575,0)" xlink:href="#Q"/><use transform="matrix(0.06172839506172839,0,0,0.06172839506172839,49.25925925925925,0)" xlink:href="#L"/><use transform="matrix(0.06172839506172839,0,0,0.06172839506172839,61.60493827160493,0)" xlink:href="#R"/></g><path fill="#333" d="M205 0l-28-72H64L36 0H1l101-248h38L239 0h-34zm-38-99l-47-123c-12 45-31 82-46 123h93" id="S"/><path fill="#333" d="M117-194c89-4 53 116 60 194h-32v-121c0-31-8-49-39-48C34-167 62-67 57 0H25l-1-190h30c1 10-1 24 2 32 11-22 29-35 61-36" id="T"/><g id="c"><use transform="matrix(0.06172839506172839,0,0,0.06172839506172839,0,0)" xlink:href="#S"/><use transform="matrix(0.06172839506172839,0,0,0.06172839506172839,14.814814814814813,0)" xlink:href="#N"/><use transform="matrix(0.06172839506172839,0,0,0.06172839506172839,27.160493827160494,0)" xlink:href="#R"/><use transform="matrix(0.06172839506172839,0,0,0.06172839506172839,45.61728395061728,0)" xlink:href="#O"/><use transform="matrix(0.06172839506172839,0,0,0.06172839506172839,50.49382716049382,0)" xlink:href="#T"/></g><path fill="#333" d="M212-179c-10-28-35-45-73-45-59 0-87 40-87 99 0 60 29 101 89 101 43 0 62-24 78-52l27 14C228-24 195 4 139 4 59 4 22-46 18-125c-6-104 99-153 187-111 19 9 31 26 39 46" id="U"/><path fill="#333" d="M100-194c63 0 86 42 84 106H49c0 40 14 67 53 68 26 1 43-12 49-29l28 8c-11 28-37 45-77 45C44 4 14-33 15-96c1-61 26-98 85-98zm52 81c6-60-76-77-97-28-3 7-6 17-6 28h103" id="V"/><path fill="#333" d="M59-47c-2 24 18 29 38 22v24C64 9 27 4 27-40v-127H5v-23h24l9-43h21v43h35v23H59v120" id="W"/><g id="d"><use transform="matrix(0.06172839506172839,0,0,0.06172839506172839,0,0)" xlink:href="#U"/><use transform="matrix(0.06172839506172839,0,0,0.06172839506172839,15.987654320987653,0)" xlink:href="#K"/><use transform="matrix(0.06172839506172839,0,0,0.06172839506172839,20.864197530864196,0)" xlink:href="#O"/><use transform="matrix(0.06172839506172839,0,0,0.06172839506172839,25.74074074074074,0)" xlink:href="#V"/><use transform="matrix(0.06172839506172839,0,0,0.06172839506172839,38.08641975308642,0)" xlink:href="#T"/><use transform="matrix(0.06172839506172839,0,0,0.06172839506172839,50.432098765432094,0)" xlink:href="#W"/></g><path d="M108 0H70L1-190h34L89-25l56-165h34" id="X"/><path d="M24-231v-30h32v30H24zM24 0v-190h32V0H24" id="Y"/><path d="M135-143c-3-34-86-38-87 0 15 53 115 12 119 90S17 21 10-45l28-5c4 36 97 45 98 0-10-56-113-15-118-90-4-57 82-63 122-42 12 7 21 19 24 35" id="Z"/><path d="M84 4C-5 8 30-112 23-190h32v120c0 31 7 50 39 49 72-2 45-101 50-169h31l1 190h-30c-1-10 1-25-2-33-11 22-28 36-60 37" id="aa"/><path d="M141-36C126-15 110 5 73 4 37 3 15-17 15-53c-1-64 63-63 125-63 3-35-9-54-41-54-24 1-41 7-42 31l-33-3c5-37 33-52 76-52 45 0 72 20 72 64v82c-1 20 7 32 28 27v20c-31 9-61-2-59-35zM48-53c0 20 12 33 32 33 41-3 63-29 60-74-43 2-92-5-92 41" id="ab"/><path d="M24 0v-261h32V0H24" id="ac"/><path d="M100-194c63 0 86 42 84 106H49c0 40 14 67 53 68 26 1 43-12 49-29l28 8c-11 28-37 45-77 45C44 4 14-33 15-96c1-61 26-98 85-98zm52 81c6-60-76-77-97-28-3 7-6 17-6 28h103" id="ad"/><path d="M114-163C36-179 61-72 57 0H25l-1-190h30c1 12-1 29 2 39 6-27 23-49 58-41v29" id="ae"/><g id="e"><use transform="matrix(0.05,0,0,0.05,0,0)" xlink:href="#X"/><use transform="matrix(0.05,0,0,0.05,9,0)" xlink:href="#Y"/><use transform="matrix(0.05,0,0,0.05,12.949999999999998,0)" xlink:href="#Z"/><use transform="matrix(0.05,0,0,0.05,21.95,0)" xlink:href="#aa"/><use transform="matrix(0.05,0,0,0.05,31.950000000000003,0)" xlink:href="#ab"/><use transform="matrix(0.05,0,0,0.05,41.95,0)" xlink:href="#ac"/><use transform="matrix(0.05,0,0,0.05,45.900000000000006,0)" xlink:href="#Y"/><use transform="matrix(0.05,0,0,0.05,49.85000000000001,0)" xlink:href="#Z"/><use transform="matrix(0.05,0,0,0.05,58.85,0)" xlink:href="#ad"/><use transform="matrix(0.05,0,0,0.05,68.85000000000001,0)" xlink:href="#ae"/></g><path d="M115-194c55 1 70 41 70 98S169 2 115 4C84 4 66-9 55-30l1 105H24l-1-265h31l2 30c10-21 28-34 59-34zm-8 174c40 0 45-34 45-75s-6-73-45-74c-42 0-51 32-51 76 0 43 10 73 51 73" id="af"/><path d="M177-190C167-65 218 103 67 71c-23-6-38-20-44-43l32-5c15 47 100 32 89-28v-30C133-14 115 1 83 1 29 1 15-40 15-95c0-56 16-97 71-98 29-1 48 16 59 35 1-10 0-23 2-32h30zM94-22c36 0 50-32 50-73 0-42-14-75-50-75-39 0-46 34-46 75s6 73 46 73" id="ag"/><g id="f"><use transform="matrix(0.05,0,0,0.05,0,0)" xlink:href="#af"/><use transform="matrix(0.05,0,0,0.05,10,0)" xlink:href="#ab"/><use transform="matrix(0.05,0,0,0.05,20,0)" xlink:href="#ag"/><use transform="matrix(0.05,0,0,0.05,30,0)" xlink:href="#ad"/><use transform="matrix(0.05,0,0,0.05,40,0)" xlink:href="#Z"/></g><path d="M212-179c-10-28-35-45-73-45-59 0-87 40-87 99 0 60 29 101 89 101 43 0 62-24 78-52l27 14C228-24 195 4 139 4 59 4 22-46 18-125c-6-104 99-153 187-111 19 9 31 26 39 46" id="ah"/><path d="M100-194c62-1 85 37 85 99 1 63-27 99-86 99S16-35 15-95c0-66 28-99 85-99zM99-20c44 1 53-31 53-75 0-43-8-75-51-75s-53 32-53 75 10 74 51 75" id="ai"/><path d="M117-194c89-4 53 116 60 194h-32v-121c0-31-8-49-39-48C34-167 62-67 57 0H25l-1-190h30c1 10-1 24 2 32 11-22 29-35 61-36" id="aj"/><path d="M59-47c-2 24 18 29 38 22v24C64 9 27 4 27-40v-127H5v-23h24l9-43h21v43h35v23H59v120" id="ak"/><g id="g"><use transform="matrix(0.05,0,0,0.05,0,0)" xlink:href="#ah"/><use transform="matrix(0.05,0,0,0.05,12.950000000000001,0)" xlink:href="#ai"/><use transform="matrix(0.05,0,0,0.05,22.950000000000003,0)" xlink:href="#aj"/><use transform="matrix(0.05,0,0,0.05,32.95,0)" xlink:href="#Z"/><use transform="matrix(0.05,0,0,0.05,41.95,0)" xlink:href="#aa"/><use transform="matrix(0.05,0,0,0.05,51.95,0)" xlink:href="#ac"/><use transform="matrix(0.05,0,0,0.05,55.900000000000006,0)" xlink:href="#ak"/><use transform="matrix(0.05,0,0,0.05,60.900000000000006,0)" xlink:href="#ad"/><use transform="matrix(0.05,0,0,0.05,70.9,0)" xlink:href="#ae"/></g><path d="M85-194c31 0 48 13 60 33l-1-100h32l1 261h-30c-2-10 0-23-3-31C134-8 116 4 85 4 32 4 16-35 15-94c0-66 23-100 70-100zm9 24c-40 0-46 34-46 75 0 40 6 74 45 74 42 0 51-32 51-76 0-42-9-74-50-73" id="al"/><g id="h"><use transform="matrix(0.05,0,0,0.05,0,0)" xlink:href="#af"/><use transform="matrix(0.05,0,0,0.05,10,0)" xlink:href="#ae"/><use transform="matrix(0.05,0,0,0.05,15.949999999999998,0)" xlink:href="#ai"/><use transform="matrix(0.05,0,0,0.05,25.950000000000003,0)" xlink:href="#al"/><use transform="matrix(0.05,0,0,0.05,35.95,0)" xlink:href="#aa"/><use transform="matrix(0.05,0,0,0.05,45.95,0)" xlink:href="#Y"/><use transform="matrix(0.05,0,0,0.05,49.900000000000006,0)" xlink:href="#ak"/></g><path d="M233-177c-1 41-23 64-60 70L243 0h-38l-65-103H63V0H30v-248c88 3 205-21 203 71zM63-129c60-2 137 13 137-47 0-61-80-42-137-45v92" id="am"/><path d="M210-169c-67 3-38 105-44 169h-31v-121c0-29-5-50-35-48C34-165 62-65 56 0H25l-1-190h30c1 10-1 24 2 32 10-44 99-50 107 0 11-21 27-35 58-36 85-2 47 119 55 194h-31v-121c0-29-5-49-35-48" id="an"/><g id="i"><use transform="matrix(0.05,0,0,0.05,0,0)" xlink:href="#am"/><use transform="matrix(0.05,0,0,0.05,12.950000000000001,0)" xlink:href="#ad"/><use transform="matrix(0.05,0,0,0.05,22.950000000000003,0)" xlink:href="#ag"/><use transform="matrix(0.05,0,0,0.05,32.95,0)" xlink:href="#Y"/><use transform="matrix(0.05,0,0,0.05,36.900000000000006,0)" xlink:href="#Z"/><use transform="matrix(0.05,0,0,0.05,45.900000000000006,0)" xlink:href="#ak"/><use transform="matrix(0.05,0,0,0.05,50.900000000000006,0)" xlink:href="#ae"/><use transform="matrix(0.05,0,0,0.05,56.85,0)" xlink:href="#ad"/><use transform="matrix(0.05,0,0,0.05,66.85000000000001,0)" xlink:href="#an"/><use transform="matrix(0.05,0,0,0.05,81.80000000000001,0)" xlink:href="#ad"/><use transform="matrix(0.05,0,0,0.05,91.80000000000001,0)" xlink:href="#aj"/><use transform="matrix(0.05,0,0,0.05,101.80000000000001,0)" xlink:href="#ak"/></g><g id="j"><use transform="matrix(0.05,0,0,0.05,0,0)" xlink:href="#ai"/><use transform="matrix(0.05,0,0,0.05,10,0)" xlink:href="#aa"/></g><g id="k"><use transform="matrix(0.05,0,0,0.05,0,0)" xlink:href="#ac"/><use transform="matrix(0.05,0,0,0.05,3.95,0)" xlink:href="#ai"/><use transform="matrix(0.05,0,0,0.05,13.949999999999998,0)" xlink:href="#ag"/><use transform="matrix(0.05,0,0,0.05,23.95,0)" xlink:href="#Y"/><use transform="matrix(0.05,0,0,0.05,27.899999999999995,0)" xlink:href="#aj"/></g><g id="l"><use transform="matrix(0.05,0,0,0.05,0,0)" xlink:href="#af"/><use transform="matrix(0.05,0,0,0.05,10,0)" xlink:href="#ab"/><use transform="matrix(0.05,0,0,0.05,20,0)" xlink:href="#Z"/><use transform="matrix(0.05,0,0,0.05,29,0)" xlink:href="#Z"/><use transform="matrix(0.05,0,0,0.05,38,0)" xlink:href="#ad"/><use transform="matrix(0.05,0,0,0.05,48,0)" xlink:href="#ae"/></g><path d="M96-169c-40 0-48 33-48 73s9 75 48 75c24 0 41-14 43-38l32 2c-6 37-31 61-74 61-59 0-76-41-82-99-10-93 101-131 147-64 4 7 5 14 7 22l-32 3c-4-21-16-35-41-35" id="ao"/><g id="m"><use transform="matrix(0.05,0,0,0.05,0,0)" xlink:href="#ao"/><use transform="matrix(0.05,0,0,0.05,9,0)" xlink:href="#ai"/><use transform="matrix(0.05,0,0,0.05,19,0)" xlink:href="#an"/><use transform="matrix(0.05,0,0,0.05,33.95,0)" xlink:href="#an"/><use transform="matrix(0.05,0,0,0.05,48.900000000000006,0)" xlink:href="#ab"/><use transform="matrix(0.05,0,0,0.05,58.900000000000006,0)" xlink:href="#aj"/><use transform="matrix(0.05,0,0,0.05,68.9,0)" xlink:href="#al"/><use transform="matrix(0.05,0,0,0.05,78.9,0)" xlink:href="#ad"/></g><path d="M205 0l-28-72H64L36 0H1l101-248h38L239 0h-34zm-38-99l-47-123c-12 45-31 82-46 123h93" id="ap"/><path d="M24-231v-30h32v30H24zM-9 49c24 4 33-6 33-30v-209h32V24c2 40-23 58-65 49V49" id="aq"/><g id="n"><use transform="matrix(0.05,0,0,0.05,0,0)" xlink:href="#ap"/><use transform="matrix(0.05,0,0,0.05,12,0)" xlink:href="#aq"/><use transform="matrix(0.05,0,0,0.05,15.949999999999998,0)" xlink:href="#ai"/><use transform="matrix(0.05,0,0,0.05,25.950000000000003,0)" xlink:href="#aa"/><use transform="matrix(0.05,0,0,0.05,35.95,0)" xlink:href="#ak"/><use transform="matrix(0.05,0,0,0.05,40.95,0)" xlink:href="#ad"/><use transform="matrix(0.05,0,0,0.05,50.95,0)" xlink:href="#ah"/><use transform="matrix(0.05,0,0,0.05,63.900000000000006,0)" xlink:href="#ai"/><use transform="matrix(0.05,0,0,0.05,73.9,0)" xlink:href="#an"/><use transform="matrix(0.05,0,0,0.05,88.85000000000001,0)" xlink:href="#an"/><use transform="matrix(0.05,0,0,0.05,103.80000000000001,0)" xlink:href="#ab"/><use transform="matrix(0.05,0,0,0.05,113.80000000000001,0)" xlink:href="#aj"/><use transform="matrix(0.05,0,0,0.05,123.80000000000001,0)" xlink:href="#al"/><use transform="matrix(0.05,0,0,0.05,133.8,0)" xlink:href="#ad"/></g><path d="M240 0l2-218c-23 76-54 145-80 218h-23L58-218 59 0H30v-248h44l77 211c21-75 51-140 76-211h43V0h-30" id="ar"/><path d="M101-234c-31-9-42 10-38 44h38v23H63V0H32v-167H5v-23h27c-7-52 17-82 69-68v24" id="as"/><g id="o"><use transform="matrix(0.05,0,0,0.05,0,0)" xlink:href="#ar"/><use transform="matrix(0.05,0,0,0.05,14.950000000000001,0)" xlink:href="#ai"/><use transform="matrix(0.05,0,0,0.05,24.950000000000003,0)" xlink:href="#al"/><use transform="matrix(0.05,0,0,0.05,34.95,0)" xlink:href="#Y"/><use transform="matrix(0.05,0,0,0.05,38.900000000000006,0)" xlink:href="#as"/><use transform="matrix(0.05,0,0,0.05,43.900000000000006,0)" xlink:href="#Y"/><use transform="matrix(0.05,0,0,0.05,47.85000000000001,0)" xlink:href="#ad"/><use transform="matrix(0.05,0,0,0.05,57.85,0)" xlink:href="#ae"/></g><g id="p"><use transform="matrix(0.05,0,0,0.05,0,0)" xlink:href="#ab"/><use transform="matrix(0.05,0,0,0.05,10,0)" xlink:href="#aj"/><use transform="matrix(0.05,0,0,0.05,20,0)" xlink:href="#aa"/><use transform="matrix(0.05,0,0,0.05,30,0)" xlink:href="#ac"/><use transform="matrix(0.05,0,0,0.05,33.95,0)" xlink:href="#ad"/></g><path d="M30 0v-248h33v221h125V0H30" id="at"/><g id="q"><use transform="matrix(0.05,0,0,0.05,0,0)" xlink:href="#at"/><use transform="matrix(0.05,0,0,0.05,10,0)" xlink:href="#ai"/><use transform="matrix(0.05,0,0,0.05,20,0)" xlink:href="#ag"/><use transform="matrix(0.05,0,0,0.05,30,0)" xlink:href="#Y"/><use transform="matrix(0.05,0,0,0.05,33.95,0)" xlink:href="#aj"/></g><path d="M143 4C61 4 22-44 18-125c-5-107 100-154 193-111 17 8 29 25 37 43l-32 9c-13-25-37-40-76-40-61 0-88 39-88 99 0 61 29 100 91 101 35 0 62-11 79-27v-45h-74v-28h105v86C228-13 192 4 143 4" id="au"/><g id="r"><use transform="matrix(0.05,0,0,0.05,0,0)" xlink:href="#au"/><use transform="matrix(0.05,0,0,0.05,14,0)" xlink:href="#ad"/><use transform="matrix(0.05,0,0,0.05,24,0)" xlink:href="#Z"/><use transform="matrix(0.05,0,0,0.05,33,0)" xlink:href="#ak"/><use transform="matrix(0.05,0,0,0.05,38,0)" xlink:href="#Y"/><use transform="matrix(0.05,0,0,0.05,41.95,0)" xlink:href="#ai"/><use transform="matrix(0.05,0,0,0.05,51.95,0)" xlink:href="#aj"/></g><g id="s"><use transform="matrix(0.05,0,0,0.05,0,0)" xlink:href="#ao"/><use transform="matrix(0.05,0,0,0.05,9,0)" xlink:href="#ab"/><use transform="matrix(0.05,0,0,0.05,19,0)" xlink:href="#ak"/><use transform="matrix(0.05,0,0,0.05,24,0)" xlink:href="#ad"/><use transform="matrix(0.05,0,0,0.05,34,0)" xlink:href="#ag"/><use transform="matrix(0.05,0,0,0.05,44,0)" xlink:href="#ai"/><use transform="matrix(0.05,0,0,0.05,54,0)" xlink:href="#ae"/><use transform="matrix(0.05,0,0,0.05,59.95,0)" xlink:href="#Y"/><use transform="matrix(0.05,0,0,0.05,63.900000000000006,0)" xlink:href="#ad"/></g><g id="t"><use transform="matrix(0.05,0,0,0.05,0,0)" xlink:href="#ag"/><use transform="matrix(0.05,0,0,0.05,10,0)" xlink:href="#ad"/><use transform="matrix(0.05,0,0,0.05,20,0)" xlink:href="#Z"/><use transform="matrix(0.05,0,0,0.05,29,0)" xlink:href="#ak"/><use transform="matrix(0.05,0,0,0.05,34,0)" xlink:href="#Y"/><use transform="matrix(0.05,0,0,0.05,37.95,0)" xlink:href="#ai"/><use transform="matrix(0.05,0,0,0.05,47.95,0)" xlink:href="#aj"/></g><g id="u"><use transform="matrix(0.05,0,0,0.05,0,0)" xlink:href="#af"/><use transform="matrix(0.05,0,0,0.05,10,0)" xlink:href="#ae"/><use transform="matrix(0.05,0,0,0.05,15.949999999999998,0)" xlink:href="#ai"/><use transform="matrix(0.05,0,0,0.05,25.950000000000003,0)" xlink:href="#al"/><use transform="matrix(0.05,0,0,0.05,35.95,0)" xlink:href="#aa"/><use transform="matrix(0.05,0,0,0.05,45.95,0)" xlink:href="#Y"/><use transform="matrix(0.05,0,0,0.05,49.900000000000006,0)" xlink:href="#ak"/><use transform="matrix(0.05,0,0,0.05,54.900000000000006,0)" xlink:href="#Z"/></g><path d="M137 0h-34L2-248h35l83 218 83-218h36" id="av"/><g id="v"><use transform="matrix(0.05185185185185186,0,0,0.05185185185185186,0,0)" xlink:href="#av"/><use transform="matrix(0.05185185185185186,0,0,0.05185185185185186,12.081481481481484,0)" xlink:href="#Y"/><use transform="matrix(0.05185185185185186,0,0,0.05185185185185186,16.17777777777778,0)" xlink:href="#Z"/><use transform="matrix(0.05185185185185186,0,0,0.05185185185185186,25.511111111111113,0)" xlink:href="#aa"/><use transform="matrix(0.05185185185185186,0,0,0.05185185185185186,35.88148148148149,0)" xlink:href="#ab"/><use transform="matrix(0.05185185185185186,0,0,0.05185185185185186,46.25185185185186,0)" xlink:href="#ac"/><use transform="matrix(0.05185185185185186,0,0,0.05185185185185186,50.348148148148155,0)" xlink:href="#Y"/><use transform="matrix(0.05185185185185186,0,0,0.05185185185185186,54.44444444444445,0)" xlink:href="#Z"/><use transform="matrix(0.05185185185185186,0,0,0.05185185185185186,63.777777777777786,0)" xlink:href="#ad"/><use transform="matrix(0.05185185185185186,0,0,0.05185185185185186,74.14814814814815,0)" xlink:href="#ae"/></g><g id="w"><use transform="matrix(0.05185185185185186,0,0,0.05185185185185186,0,0)" xlink:href="#ac"/><use transform="matrix(0.05185185185185186,0,0,0.05185185185185186,4.0962962962962965,0)" xlink:href="#ab"/></g><g id="x"><use transform="matrix(0.05185185185185186,0,0,0.05185185185185186,0,0)" xlink:href="#ac"/><use transform="matrix(0.05185185185185186,0,0,0.05185185185185186,4.0962962962962965,0)" xlink:href="#Y"/><use transform="matrix(0.05185185185185186,0,0,0.05185185185185186,8.192592592592593,0)" xlink:href="#Z"/><use transform="matrix(0.05185185185185186,0,0,0.05185185185185186,17.525925925925925,0)" xlink:href="#ak"/><use transform="matrix(0.05185185185185186,0,0,0.05185185185185186,22.711111111111112,0)" xlink:href="#ad"/></g><g id="y"><use transform="matrix(0.05185185185185186,0,0,0.05185185185185186,0,0)" xlink:href="#al"/><use transform="matrix(0.05185185185185186,0,0,0.05185185185185186,10.370370370370372,0)" xlink:href="#ad"/><use transform="matrix(0.05185185185185186,0,0,0.05185185185185186,20.740740740740744,0)" xlink:href="#Z"/></g><path d="M33 0v-38h34V0H33" id="aw"/><g id="z"><use transform="matrix(0.05185185185185186,0,0,0.05185185185185186,0,0)" xlink:href="#ao"/><use transform="matrix(0.05185185185185186,0,0,0.05185185185185186,9.333333333333334,0)" xlink:href="#ac"/><use transform="matrix(0.05185185185185186,0,0,0.05185185185185186,13.42962962962963,0)" xlink:href="#Y"/><use transform="matrix(0.05185185185185186,0,0,0.05185185185185186,17.525925925925925,0)" xlink:href="#ad"/><use transform="matrix(0.05185185185185186,0,0,0.05185185185185186,27.8962962962963,0)" xlink:href="#aj"/><use transform="matrix(0.05185185185185186,0,0,0.05185185185185186,38.26666666666667,0)" xlink:href="#ak"/><use transform="matrix(0.05185185185185186,0,0,0.05185185185185186,43.451851851851856,0)" xlink:href="#Z"/><use transform="matrix(0.05185185185185186,0,0,0.05185185185185186,52.78518518518519,0)" xlink:href="#aw"/></g><g id="A"><use transform="matrix(0.05185185185185186,0,0,0.05185185185185186,0,0)" xlink:href="#au"/><use transform="matrix(0.05185185185185186,0,0,0.05185185185185186,14.51851851851852,0)" xlink:href="#ad"/><use transform="matrix(0.05185185185185186,0,0,0.05185185185185186,24.888888888888893,0)" xlink:href="#Z"/><use transform="matrix(0.05185185185185186,0,0,0.05185185185185186,34.22222222222223,0)" xlink:href="#ak"/><use transform="matrix(0.05185185185185186,0,0,0.05185185185185186,39.40740740740741,0)" xlink:href="#Y"/><use transform="matrix(0.05185185185185186,0,0,0.05185185185185186,43.50370370370371,0)" xlink:href="#ai"/><use transform="matrix(0.05185185185185186,0,0,0.05185185185185186,53.87407407407408,0)" xlink:href="#aj"/></g><g id="B"><use transform="matrix(0.05185185185185186,0,0,0.05185185185185186,0,0)" xlink:href="#ao"/><use transform="matrix(0.05185185185185186,0,0,0.05185185185185186,9.333333333333334,0)" xlink:href="#ai"/><use transform="matrix(0.05185185185185186,0,0,0.05185185185185186,19.703703703703706,0)" xlink:href="#an"/><use transform="matrix(0.05185185185185186,0,0,0.05185185185185186,35.20740740740741,0)" xlink:href="#an"/><use transform="matrix(0.05185185185185186,0,0,0.05185185185185186,50.711111111111116,0)" xlink:href="#ab"/><use transform="matrix(0.05185185185185186,0,0,0.05185185185185186,61.08148148148149,0)" xlink:href="#aj"/><use transform="matrix(0.05185185185185186,0,0,0.05185185185185186,71.45185185185186,0)" xlink:href="#al"/><use transform="matrix(0.05185185185185186,0,0,0.05185185185185186,81.82222222222222,0)" xlink:href="#ad"/><use transform="matrix(0.05185185185185186,0,0,0.05185185185185186,92.19259259259259,0)" xlink:href="#Z"/></g><g id="C"><use transform="matrix(0.05,0,0,0.05,0,0)" xlink:href="#ap"/><use transform="matrix(0.05,0,0,0.05,12,0)" xlink:href="#aq"/><use transform="matrix(0.05,0,0,0.05,15.949999999999998,0)" xlink:href="#ai"/><use transform="matrix(0.05,0,0,0.05,25.950000000000003,0)" xlink:href="#aa"/><use transform="matrix(0.05,0,0,0.05,35.95,0)" xlink:href="#ak"/><use transform="matrix(0.05,0,0,0.05,40.95,0)" xlink:href="#ad"/><use transform="matrix(0.05,0,0,0.05,50.95,0)" xlink:href="#ae"/></g><g id="D"><use transform="matrix(0.05,0,0,0.05,0,0)" xlink:href="#an"/><use transform="matrix(0.05,0,0,0.05,14.950000000000001,0)" xlink:href="#ai"/><use transform="matrix(0.05,0,0,0.05,24.950000000000003,0)" xlink:href="#al"/><use transform="matrix(0.05,0,0,0.05,34.95,0)" xlink:href="#Y"/><use transform="matrix(0.05,0,0,0.05,38.900000000000006,0)" xlink:href="#as"/><use transform="matrix(0.05,0,0,0.05,43.900000000000006,0)" xlink:href="#Y"/><use transform="matrix(0.05,0,0,0.05,47.85000000000001,0)" xlink:href="#ad"/><use transform="matrix(0.05,0,0,0.05,57.85,0)" xlink:href="#ae"/></g><path d="M145-31C134-9 116 4 85 4 32 4 16-35 15-94c0-59 17-99 70-100 32-1 48 14 60 33 0-11-1-24 2-32h30l-1 268h-32zM93-21c41 0 51-33 51-76s-8-73-50-73c-40 0-46 35-46 75s5 74 45 74" id="ax"/><g id="E"><use transform="matrix(0.05,0,0,0.05,0,0)" xlink:href="#ar"/><use transform="matrix(0.05,0,0,0.05,14.950000000000001,0)" xlink:href="#ab"/><use transform="matrix(0.05,0,0,0.05,24.950000000000003,0)" xlink:href="#Z"/><use transform="matrix(0.05,0,0,0.05,33.95,0)" xlink:href="#ax"/><use transform="matrix(0.05,0,0,0.05,43.95,0)" xlink:href="#aa"/><use transform="matrix(0.05,0,0,0.05,53.95,0)" xlink:href="#ad"/><use transform="matrix(0.05,0,0,0.05,63.95,0)" xlink:href="#ae"/></g><g id="F"><use transform="matrix(0.05,0,0,0.05,0,0)" xlink:href="#ap"/><use transform="matrix(0.05,0,0,0.05,12,0)" xlink:href="#aq"/><use transform="matrix(0.05,0,0,0.05,15.949999999999998,0)" xlink:href="#ai"/><use transform="matrix(0.05,0,0,0.05,25.950000000000003,0)" xlink:href="#aa"/><use transform="matrix(0.05,0,0,0.05,35.95,0)" xlink:href="#ak"/><use transform="matrix(0.05,0,0,0.05,40.95,0)" xlink:href="#ad"/></g><path d="M106-169C34-169 62-67 57 0H25v-261h32l-1 103c12-21 28-36 61-36 89 0 53 116 60 194h-32v-121c2-32-8-49-39-48" id="ay"/><g id="G"><use transform="matrix(0.05185185185185186,0,0,0.05185185185185186,0,0)" xlink:href="#ah"/><use transform="matrix(0.05185185185185186,0,0,0.05185185185185186,13.42962962962963,0)" xlink:href="#ay"/><use transform="matrix(0.05185185185185186,0,0,0.05185185185185186,23.800000000000004,0)" xlink:href="#ab"/><use transform="matrix(0.05185185185185186,0,0,0.05185185185185186,34.17037037037038,0)" xlink:href="#aj"/><use transform="matrix(0.05185185185185186,0,0,0.05185185185185186,44.54074074074075,0)" xlink:href="#ag"/><use transform="matrix(0.05185185185185186,0,0,0.05185185185185186,54.911111111111126,0)" xlink:href="#ad"/><use transform="matrix(0.05185185185185186,0,0,0.05185185185185186,65.28148148148149,0)" xlink:href="#ae"/></g><g id="H"><use transform="matrix(0.05185185185185186,0,0,0.05185185185185186,0,0)" xlink:href="#av"/><use transform="matrix(0.05185185185185186,0,0,0.05185185185185186,11.044444444444446,0)" xlink:href="#ab"/><use transform="matrix(0.05185185185185186,0,0,0.05185185185185186,21.414814814814818,0)" xlink:href="#ac"/><use transform="matrix(0.05185185185185186,0,0,0.05185185185185186,25.511111111111113,0)" xlink:href="#Y"/><use transform="matrix(0.05185185185185186,0,0,0.05185185185185186,29.60740740740741,0)" xlink:href="#al"/><use transform="matrix(0.05185185185185186,0,0,0.05185185185185186,39.97777777777778,0)" xlink:href="#ad"/></g><g id="I"><use transform="matrix(0.05185185185185186,0,0,0.05185185185185186,0,0)" xlink:href="#ap"/><use transform="matrix(0.05185185185185186,0,0,0.05185185185185186,12.444444444444446,0)" xlink:href="#aj"/><use transform="matrix(0.05185185185185186,0,0,0.05185185185185186,22.814814814814817,0)" xlink:href="#aj"/><use transform="matrix(0.05185185185185186,0,0,0.05185185185185186,33.18518518518519,0)" xlink:href="#aa"/><use transform="matrix(0.05185185185185186,0,0,0.05185185185185186,43.555555555555564,0)" xlink:href="#ac"/><use transform="matrix(0.05185185185185186,0,0,0.05185185185185186,47.65185185185186,0)" xlink:href="#ad"/></g></defs></g></svg>